<?xml version="1.0" encoding="UTF-8"?>
<svg id="Cencora_business_units_fonts" data-name="Cencora business units fonts" xmlns="http://www.w3.org/2000/svg" viewBox="0 0 1000 275.5732">
  <path d="M974.842,2.8579v18.582c-11.4338-13.722-28.3019-21.4399-48.0259-21.4399-39.7379,0-68.6119,31.446-68.6119,71.1839s28.874,71.1841,68.6119,71.1841c19.724,0,36.5921-7.72,48.0259-21.4421v18.582h25.158V2.8579h-25.158ZM929.6742,117.2099c-26.8722,0-45.168-19.726-45.168-46.026s18.2958-46.0258,45.168-46.0258,45.1678,19.7238,45.1678,46.0258-18.2958,46.026-45.1678,46.026ZM833.6202.5719l15.436,24.5861c-26.8722,0-40.0221,10.862-40.0221,32.8759v81.4739h-25.7299V54.316c0-30.302,17.7239-50.6001,50.3161-53.7441ZM686.678,0c-41.1659,0-71.47,31.446-71.47,71.1839s30.3041,71.1841,71.47,71.1841,71.47-31.4479,71.47-71.1841S727.8441,0,686.678,0ZM686.678,117.2099c-26.872,0-45.168-19.726-45.168-46.026s18.296-46.0258,45.168-46.0258,45.168,19.7238,45.168,46.0258-18.296,46.026-45.168,46.026ZM492.2801,71.1839c0,26.3001,18.012,46.026,44.3119,46.026,18.296,0,32.304-8.5759,40.0221-22.8701l20.87,14.5801c-11.72,20.01-34.0201,33.448-60.8921,33.448-40.3078,0-70.612-31.4479-70.612-71.1841S496.2841,0,536.592,0c26.872,0,49.1721,13.4359,60.8921,33.448l-20.87,14.5799c-7.7181-14.2939-21.7261-22.8698-40.0221-22.8698-26.2999,0-44.3119,19.7238-44.3119,46.0258ZM440.822,60.32v79.1879h-25.728V62.0358c0-23.4419-12.0059-36.8778-36.878-36.8778s-36.878,13.4359-36.878,36.8778v77.472h-25.7299V60.32c0-36.3059,22.586-60.32,62.6079-60.32s62.606,24.014,62.606,60.32ZM290.4522,71.47c0,3.1439,0,6.5739-.2862,10.576h-94.0539l14.866-23.44h51.7438c-3.146-20.584-20.0119-33.448-42.5958-33.448-26.302,0-44.5981,19.7238-44.5981,46.0258s18.296,46.026,44.5981,46.026c16.8659,0,30.302-7.4319,38.592-19.44l20.0119,15.7241c-12.2919,17.438-33.1621,28.874-58.6039,28.874-40.8821,0-70.8981-31.162-70.8981-71.1841C149.228,31.446,179.53,0,220.1261,0c42.3099,0,70.326,30.3039,70.326,71.47ZM26.3001,71.1839c0,26.3001,18.0099,46.026,44.3119,46.026,18.296,0,32.304-8.5759,40.0221-22.8701l20.87,14.5801c-11.7222,20.01-34.0201,33.448-60.8921,33.448C30.302,142.3679,0,110.92,0,71.1839S30.302,0,70.612,0c26.872,0,49.1699,13.4359,60.8921,33.448l-20.87,14.5799c-7.7181-14.2939-21.7261-22.8698-40.0221-22.8698-26.302,0-44.3119,19.7238-44.3119,46.0258Z" style="fill: #461e96;"/>
  <path d="M57.0879,258.2842H25.0518l-5.7969,15.9668h-10.0684l26.5439-71.1895h10.6787l26.5439,71.1895h-10.0684l-5.7969-15.9668ZM53.833,249.4365l-12.8145-35.0869-12.7119,35.0869h25.5264ZM80.4775,200.0098h8.8477v74.2412h-8.8477v-74.2412ZM102.8506,200.0098h8.8477v74.2412h-8.8477v-74.2412ZM123.6973,208.248c0-3.2549,2.6445-6.001,6-6.001,3.2549,0,5.8984,2.7461,5.8984,6.001s-2.6436,5.8984-5.8984,5.8984c-3.3555,0-6-2.6445-6-5.8984ZM125.2227,223.4014h8.8477v50.8496h-8.8477v-50.8496ZM198.5469,223.4014v50.8496h-8.8477v-8.7461c-4.0684,6.2031-10.5771,10.0684-19.2217,10.0684-14.1357,0-25.7295-11.6953-25.7295-26.7471s11.5938-26.7471,25.7295-26.7471c8.6445,0,15.1533,3.8643,19.2217,10.0684v-8.7461h8.8477ZM189.6992,248.8262c0-10.374-7.8311-18.2041-18.1025-18.2041-10.1699,0-18.001,7.8301-18.001,18.2041s7.8311,18.2041,18.001,18.2041c10.2715,0,18.1025-7.8311,18.1025-18.2041ZM257.0234,243.0293v31.2217h-8.8477v-30.7129c0-8.3398-4.7803-13.0176-12.6104-13.0176-8.1367,0-14.7471,4.7793-14.7471,16.7803v26.9502h-8.8477v-50.8496h8.8477v7.3223c3.7627-6,9.3564-8.6445,16.4756-8.6445,11.8994,0,19.7295,7.9326,19.7295,20.9502ZM266.4814,248.8262c0-15.0518,11.3906-26.7471,26.7471-26.7471,10.0684,0,18.6113,5.2881,22.4756,13.3223l-7.4238,4.2715c-2.543-5.3896-8.2373-8.9492-15.0518-8.9492-10.1699,0-17.8994,7.8311-17.8994,18.1025,0,10.1699,7.7295,18.001,17.8994,18.001,6.916,0,12.5088-3.5596,15.3564-8.8477l7.5264,4.373c-4.2715,7.9326-12.916,13.2207-22.8828,13.2207-15.3564,0-26.7471-11.6953-26.7471-26.7471ZM349.7734,267.2334c7.0176,0,12.1025-3.2539,14.6445-7.4238l7.5264,4.2715c-4.4746,6.916-12.2041,11.4922-22.374,11.4922-16.374,0-27.2559-11.4922-27.2559-26.7471,0-15.0518,10.7803-26.7471,26.6455-26.7471,15.3564,0,25.3232,12.6104,25.3232,26.8486,0,1.3223-.1016,2.6445-.3047,3.9658h-42.6123c1.7285,9.1533,8.9492,14.3398,18.4072,14.3398ZM331.3662,245.165h33.9678c-1.5264-10.0684-8.7471-14.7471-16.374-14.7471-9.5596,0-16.1699,5.8994-17.5938,14.7471ZM464.1855,203.0615v71.1895h-9.3564v-32.0352h-34.5781v32.0352h-9.458v-71.1895h9.458v30.2041h34.5781v-30.2041h9.3564ZM503.1357,267.2334c7.0176,0,12.1025-3.2539,14.6445-7.4238l7.5254,4.2715c-4.4746,6.916-12.2031,11.4922-22.373,11.4922-16.374,0-27.2559-11.4922-27.2559-26.7471,0-15.0518,10.7803-26.7471,26.6455-26.7471,15.3564,0,25.3232,12.6104,25.3232,26.8486,0,1.3223-.1016,2.6445-.3057,3.9658h-42.6123c1.7295,9.1533,8.9492,14.3398,18.4082,14.3398ZM484.7275,245.165h33.9678c-1.5254-10.0684-8.7461-14.7471-16.373-14.7471-9.5605,0-16.1709,5.8994-17.5947,14.7471ZM588.665,223.4014v50.8496h-8.8477v-8.7461c-4.0684,6.2031-10.5771,10.0684-19.2217,10.0684-14.1367,0-25.7305-11.6953-25.7305-26.7471s11.5938-26.7471,25.7305-26.7471c8.6445,0,15.1533,3.8643,19.2217,10.0684v-8.7461h8.8477ZM579.8174,248.8262c0-10.374-7.8311-18.2041-18.1035-18.2041-10.1699,0-18,7.8301-18,18.2041s7.8301,18.2041,18,18.2041c10.2725,0,18.1035-7.8311,18.1035-18.2041ZM602.0889,200.0098h8.8486v74.2412h-8.8486v-74.2412ZM638.5977,231.9443v27.5605c0,7.7285,4.4746,7.2207,13.5264,6.8135v7.9326c-15.2559,2.0342-22.374-2.0342-22.374-14.7461v-27.5605h-10.0684v-8.543h10.0684v-11.5938l8.8477-2.6445v14.2383h13.5264v8.543h-13.5264ZM707.6523,243.0293v31.2217h-8.8486v-30.7129c0-8.3398-4.7793-13.0176-12.6104-13.0176-8.1357,0-14.7461,4.7793-14.7461,16.7803v26.9502h-8.8486v-71.1895h8.8486v27.6621c3.7627-6,9.3555-8.6445,16.4746-8.6445,11.8994,0,19.7305,7.9326,19.7305,20.9502ZM717.1094,248.8262c0-15.0518,11.3906-26.7471,26.7471-26.7471,10.0684,0,18.6113,5.2881,22.4756,13.3223l-7.4238,4.2715c-2.542-5.3896-8.2373-8.9492-15.0518-8.9492-10.1699,0-17.8984,7.8311-17.8984,18.1025,0,10.1699,7.7285,18.001,17.8984,18.001,6.916,0,12.5098-3.5596,15.3574-8.8477l7.5254,4.373c-4.2715,7.9326-12.916,13.2207-22.8828,13.2207-15.3564,0-26.7471-11.6953-26.7471-26.7471ZM826.7422,223.4014v50.8496h-8.8486v-8.7461c-4.0674,6.2031-10.5762,10.0684-19.2207,10.0684-14.1367,0-25.7305-11.6953-25.7305-26.7471s11.5938-26.7471,25.7305-26.7471c8.6445,0,15.1533,3.8643,19.2207,10.0684v-8.7461h8.8486ZM817.8936,248.8262c0-10.374-7.8301-18.2041-18.1025-18.2041-10.1699,0-18,7.8301-18,18.2041s7.8301,18.2041,18,18.2041c10.2725,0,18.1025-7.8311,18.1025-18.2041ZM864.8789,222.4854v9.2549c-7.627-.3047-15.8643,3.5596-15.8643,15.5605v26.9502h-8.8486v-50.8496h8.8486v8.543c3.2539-7.1191,9.458-9.459,15.8643-9.459ZM896.4043,267.2334c7.0176,0,12.1025-3.2539,14.6455-7.4238l7.5254,4.2715c-4.4746,6.916-12.2041,11.4922-22.374,11.4922-16.374,0-27.2559-11.4922-27.2559-26.7471,0-15.0518,10.7803-26.7471,26.6455-26.7471,15.3564,0,25.3232,12.6104,25.3232,26.8486,0,1.3223-.1016,2.6445-.3047,3.9658h-42.6123c1.7285,9.1533,8.9492,14.3398,18.4072,14.3398ZM877.9971,245.165h33.9678c-1.5254-10.0684-8.7461-14.7471-16.374-14.7471-9.5596,0-16.1699,5.8994-17.5938,14.7471Z" style="fill: #3b3b3b;"/>
</svg>